<?xml version="1.0" encoding="utf-8"?>
<!-- Generator: Adobe Illustrator 24.2.0, SVG Export Plug-In . SVG Version: 6.00 Build 0)  -->
<svg version="1.1" id="_图层_1" xmlns="http://www.w3.org/2000/svg" xmlns:xlink="http://www.w3.org/1999/xlink" x="0px"
	y="0px" viewBox="0 0 56.7 21.2" width="116" xml:space="preserve">
	<g>
		<path fill="currentcolor"
			d="M3.8,1l2,5.5H1.8L3.8,1z M3.4,0.1L0,9.4h0.8l0.8-2.3h4.4l0.8,2.3h0.8L4.1,0.1H3.4L3.4,0.1z" />
		<path fill="currentcolor" d="M14.6,6.2c0,1-0.3,1.7-0.8,2.3c-0.3,0.3-0.7,0.6-1.1,0.8c-0.4,0.2-0.9,0.3-1.4,0.3c-0.4,0-0.9-0.1-1.3-0.3
		C9.7,9.1,9.3,8.9,9,8.6C8.7,8.3,8.5,8,8.4,7.7C8.3,7.4,8.2,7,8.2,6.6c0-0.4,0-1,0-1.9s0-1.5,0-1.9c0-0.4,0.1-0.7,0.2-1.1
		S8.7,1.2,9,1c0.3-0.3,0.7-0.5,1.1-0.7C10.5,0.1,10.9,0,11.3,0c0.8,0,1.5,0.2,2.1,0.7c0.6,0.5,0.9,1.2,1.1,2h-0.7
		c-0.1-0.4-0.2-0.8-0.5-1.1c-0.2-0.3-0.5-0.6-0.9-0.7c-0.3-0.2-0.7-0.3-1.1-0.3c-0.3,0-0.7,0.1-1,0.2S9.8,1.1,9.6,1.3
		C9.4,1.5,9.3,1.7,9.2,1.9C9.1,2,9,2.3,9,2.6C8.9,2.8,8.9,3.1,8.9,3.5c0,0.4,0,0.8,0,1.3c0,0.7,0,1.3,0,1.7s0.1,0.7,0.2,1
		c0.1,0.3,0.3,0.5,0.5,0.7c0.2,0.2,0.5,0.4,0.8,0.5c0.3,0.1,0.6,0.2,1,0.2c0.4,0,0.7-0.1,1.1-0.2C12.8,8.5,13,8.3,13.3,8
		c0.2-0.2,0.3-0.5,0.4-0.8c0.1-0.3,0.1-0.6,0.1-1V5.3h-2.5V4.7h3.2L14.6,6.2L14.6,6.2z" />
		<path fill="currentcolor"
			d="M21.9,2.6c0-0.6-0.2-1.1-0.6-1.4c-0.4-0.3-0.9-0.5-1.5-0.5h-2.8v3.8h2.8c0.3,0,0.6,0,0.8-0.1
		c0.3-0.1,0.5-0.2,0.6-0.4c0.2-0.2,0.3-0.3,0.4-0.6C21.9,3.2,21.9,2.9,21.9,2.6 M22.7,9.4h-0.8l-2.2-4.3h-2.6v4.3h-0.7V0.1H20
		c0.5,0,1,0.1,1.4,0.3c0.4,0.2,0.7,0.5,1,0.9s0.3,0.8,0.3,1.4c0,0.7-0.2,1.2-0.6,1.7c-0.4,0.4-0.9,0.7-1.6,0.8L22.7,9.4L22.7,9.4z" />
		<rect x="24.4" y="0.1" fill="currentcolor" width="0.7" height="9.4" />
		<path fill="currentcolor" d="M33.3,6.8c-0.1,0.6-0.3,1.1-0.6,1.5c-0.3,0.4-0.7,0.7-1.1,0.9c-0.4,0.2-0.9,0.3-1.5,0.3
		c-0.4,0-0.9-0.1-1.3-0.3c-0.4-0.2-0.8-0.4-1.1-0.7c-0.3-0.3-0.5-0.6-0.6-0.9C27.1,7.4,27,7,27,6.6c0-0.4,0-1,0-1.9s0-1.5,0-1.9
		c0-0.4,0.1-0.7,0.2-1.1c0.1-0.3,0.3-0.6,0.6-0.9c0.3-0.3,0.7-0.5,1.1-0.7C29.3,0.1,29.7,0,30.2,0c0.5,0,1,0.1,1.5,0.3
		c0.4,0.2,0.8,0.5,1.1,0.9c0.3,0.4,0.5,0.9,0.6,1.5h-0.7c-0.1-0.6-0.4-1.2-0.9-1.5c-0.4-0.4-1-0.6-1.6-0.6c-0.3,0-0.7,0.1-1,0.2
		s-0.6,0.3-0.8,0.5c-0.2,0.2-0.3,0.3-0.4,0.5s-0.2,0.4-0.2,0.7s-0.1,0.6-0.1,0.9c0,0.4,0,0.8,0,1.3c0,0.7,0,1.3,0,1.7
		c0,0.4,0.1,0.7,0.2,1c0.1,0.3,0.3,0.5,0.5,0.7c0.2,0.2,0.5,0.4,0.8,0.5c0.3,0.1,0.6,0.2,1,0.2c0.4,0,0.8-0.1,1.1-0.3
		c0.3-0.2,0.6-0.4,0.9-0.7c0.2-0.3,0.4-0.7,0.5-1.1L33.3,6.8L33.3,6.8z" />
		<path fill="currentcolor" d="M40.5,4.8c0-0.7,0-1.3,0-1.7c0-0.4-0.1-0.7-0.2-1c-0.1-0.3-0.3-0.5-0.5-0.7c-0.2-0.2-0.5-0.4-0.8-0.5
		c-0.3-0.1-0.6-0.2-1-0.2s-0.7,0.1-1,0.2s-0.6,0.3-0.8,0.5c-0.2,0.2-0.3,0.3-0.4,0.5s-0.2,0.4-0.2,0.7c-0.1,0.3-0.1,0.6-0.1,0.9
		c0,0.4,0,0.8,0,1.3c0,0.7,0,1.3,0,1.7c0,0.4,0.1,0.7,0.2,1c0.1,0.3,0.3,0.5,0.5,0.7c0.2,0.2,0.5,0.4,0.8,0.5c0.3,0.1,0.6,0.2,1,0.2
		s0.7-0.1,1-0.2c0.3-0.1,0.6-0.3,0.8-0.5c0.2-0.2,0.4-0.5,0.5-0.7c0.1-0.3,0.2-0.6,0.2-1C40.5,6.1,40.5,5.5,40.5,4.8 M41.2,4.8
		c0,0.8,0,1.5,0,1.9c0,0.4-0.1,0.8-0.2,1.1c-0.1,0.3-0.3,0.6-0.6,0.9c-0.3,0.3-0.7,0.5-1.1,0.7c-0.4,0.2-0.8,0.3-1.3,0.3
		s-0.9-0.1-1.3-0.3c-0.4-0.2-0.8-0.4-1.1-0.7C35.4,8.3,35.2,8,35,7.7c-0.1-0.3-0.2-0.7-0.2-1.1c0-0.4,0-1,0-1.9s0-1.5,0-1.9
		c0-0.4,0.1-0.7,0.2-1.1s0.3-0.6,0.6-0.9c0.3-0.3,0.7-0.5,1.1-0.7C37.1,0.1,37.5,0,38,0s0.9,0.1,1.3,0.2C39.6,0.4,40,0.7,40.3,1
		c0.3,0.3,0.5,0.6,0.6,0.9s0.2,0.7,0.2,1.1C41.2,3.3,41.2,3.9,41.2,4.8" />
		<path fill="currentcolor"
			d="M48.6,2.6c0-0.6-0.2-1.1-0.6-1.4c-0.4-0.3-0.9-0.5-1.5-0.5h-2.8v3.8h2.8c0.3,0,0.6,0,0.8-0.1
		C47.6,4.3,47.8,4.2,48,4c0.2-0.2,0.3-0.3,0.4-0.6C48.5,3.2,48.6,2.9,48.6,2.6 M49.4,9.4h-0.8l-2.2-4.3h-2.6v4.3H43V0.1h3.6
		c0.5,0,1,0.1,1.4,0.3c0.4,0.2,0.7,0.5,1,0.9s0.3,0.8,0.3,1.4c0,0.7-0.2,1.2-0.6,1.7c-0.4,0.4-0.9,0.7-1.6,0.8L49.4,9.4L49.4,9.4z" />
		<polygon fill="currentcolor" points="51,0.1 51,9.4 56.7,9.4 56.7,8.8 51.7,8.8 51.7,5 56,5 56,4.4 51.7,4.4 51.7,0.7 56.7,0.7 56.7,0.1
		" />
		<path fill="currentcolor" d="M7.3,17.9c0,1-0.3,1.7-0.8,2.3c-0.3,0.3-0.7,0.6-1.1,0.8c-0.4,0.2-0.9,0.3-1.4,0.3c-0.4,0-0.9-0.1-1.3-0.3
		c-0.4-0.2-0.8-0.4-1.1-0.7c-0.3-0.3-0.5-0.6-0.6-0.9C1,19,1,18.7,0.9,18.3c0-0.4,0-1,0-1.9c0-0.8,0-1.5,0-1.9
		c0-0.4,0.1-0.7,0.2-1.1c0.1-0.3,0.3-0.6,0.6-0.9c0.3-0.3,0.7-0.5,1.1-0.7c0.4-0.2,0.8-0.2,1.3-0.2c0.8,0,1.5,0.2,2.1,0.7
		c0.6,0.5,0.9,1.2,1.1,2H6.6c-0.1-0.4-0.2-0.8-0.5-1.1c-0.2-0.3-0.5-0.6-0.9-0.7c-0.3-0.2-0.7-0.3-1.1-0.3c-0.3,0-0.7,0.1-1,0.2
		c-0.3,0.1-0.6,0.3-0.8,0.5c-0.2,0.2-0.3,0.3-0.4,0.5c-0.1,0.2-0.2,0.4-0.2,0.7c-0.1,0.3-0.1,0.6-0.1,0.9c0,0.4,0,0.8,0,1.3
		c0,0.7,0,1.3,0,1.7c0,0.4,0.1,0.7,0.2,1c0.1,0.3,0.3,0.5,0.5,0.7c0.2,0.2,0.5,0.4,0.8,0.5c0.3,0.1,0.6,0.2,1,0.2
		c0.4,0,0.7-0.1,1.1-0.2c0.3-0.2,0.6-0.4,0.9-0.7c0.2-0.2,0.3-0.5,0.4-0.8c0.1-0.3,0.1-0.6,0.1-1V17H4.1v-0.6h3.2L7.3,17.9L7.3,17.9
		z" />
		<path fill="currentcolor" d="M14.7,14.3c0-0.6-0.2-1.1-0.6-1.4c-0.4-0.3-0.9-0.5-1.5-0.5H9.8v3.8h2.8c0.3,0,0.6,0,0.8-0.1
		c0.3-0.1,0.5-0.2,0.6-0.4c0.2-0.2,0.3-0.3,0.4-0.6C14.6,14.9,14.7,14.6,14.7,14.3 M15.5,21.1h-0.8l-2.2-4.3H9.9v4.3H9.1v-9.4h3.6
		c0.5,0,1,0.1,1.4,0.3c0.4,0.2,0.7,0.5,1,0.9c0.2,0.4,0.3,0.8,0.3,1.4c0,0.7-0.2,1.2-0.6,1.7c-0.4,0.4-0.9,0.7-1.6,0.8L15.5,21.1
		L15.5,21.1z" />
		<path fill="currentcolor" d="M22.5,16.4c0-0.7,0-1.3,0-1.7c0-0.4-0.1-0.7-0.2-1c-0.1-0.3-0.3-0.5-0.5-0.7c-0.2-0.2-0.5-0.4-0.8-0.5
		c-0.3-0.1-0.6-0.2-1-0.2c-0.3,0-0.7,0.1-1,0.2c-0.3,0.1-0.6,0.3-0.8,0.5c-0.2,0.2-0.3,0.3-0.4,0.5c-0.1,0.2-0.2,0.4-0.2,0.7
		c-0.1,0.3-0.1,0.6-0.1,0.9c0,0.4,0,0.8,0,1.3c0,0.7,0,1.3,0,1.7c0,0.4,0.1,0.7,0.2,1c0.1,0.3,0.3,0.5,0.5,0.7
		c0.2,0.2,0.5,0.4,0.8,0.5c0.3,0.1,0.6,0.2,1,0.2c0.3,0,0.7-0.1,1-0.2c0.3-0.1,0.6-0.3,0.8-0.5c0.2-0.2,0.4-0.5,0.5-0.7
		c0.1-0.3,0.2-0.6,0.2-1C22.4,17.7,22.5,17.2,22.5,16.4 M23.2,16.4c0,0.8,0,1.5,0,1.9c0,0.4-0.1,0.8-0.2,1.1
		c-0.1,0.3-0.3,0.6-0.6,0.9c-0.3,0.3-0.7,0.5-1.1,0.7c-0.4,0.2-0.8,0.3-1.3,0.3c-0.4,0-0.9-0.1-1.3-0.3c-0.4-0.2-0.8-0.4-1.1-0.7
		c-0.3-0.3-0.5-0.6-0.6-0.9s-0.2-0.7-0.2-1.1c0-0.4,0-1,0-1.9c0-0.8,0-1.5,0-1.9c0-0.4,0.1-0.7,0.2-1.1c0.1-0.3,0.3-0.6,0.6-0.9
		c0.3-0.3,0.7-0.5,1.1-0.7c0.4-0.2,0.8-0.2,1.3-0.2c0.5,0,0.9,0.1,1.3,0.2c0.4,0.2,0.8,0.4,1.1,0.7c0.3,0.3,0.5,0.6,0.6,0.9
		c0.1,0.3,0.2,0.7,0.2,1.1C23.2,15,23.2,15.6,23.2,16.4" />
		<path fill="currentcolor" d="M31.3,18.1c0,0.6-0.1,1.1-0.4,1.6c-0.3,0.5-0.7,0.8-1.1,1.1c-0.5,0.3-1,0.4-1.7,0.4s-1.2-0.1-1.7-0.4
		c-0.5-0.3-0.9-0.6-1.1-1.1c-0.3-0.5-0.4-1-0.4-1.6v-6.3h0.7V18c0,0.5,0.1,1,0.3,1.3c0.2,0.4,0.5,0.7,0.9,0.9
		c0.4,0.2,0.8,0.3,1.3,0.3c0.5,0,0.9-0.1,1.3-0.3c0.4-0.2,0.7-0.5,0.9-0.9c0.2-0.4,0.3-0.8,0.3-1.3v-6.2h0.7V18.1z" />
		<path fill="currentcolor" d="M39,14.5c0-0.7-0.2-1.2-0.6-1.5c-0.4-0.3-0.9-0.5-1.6-0.5h-2.6v4.1h2.6c0.7,0,1.2-0.2,1.6-0.5
		C38.8,15.7,39,15.1,39,14.5 M39.7,14.5c0,0.8-0.3,1.5-0.8,2c-0.5,0.5-1.2,0.7-2,0.7h-2.7v4h-0.7v-9.4h3.4c0.4,0,0.8,0.1,1.1,0.2
		c0.3,0.1,0.6,0.3,0.9,0.5c0.3,0.2,0.4,0.5,0.6,0.9C39.6,13.7,39.7,14,39.7,14.5" />
	</g>
</svg>